<svg width="80" height="34" viewBox="0 0 52 30" fill="none" xmlns="http://www.w3.org/2000/svg">
<path d="M42 24.5C39.5 24.5 37.29 22.9 36 20.5C36.03 18 40 16.625 42 16.625C44 16.625 47.97 18 48 20.5C47.3389 21.7305 46.4459 22.7389 45.3996 23.4365C44.3533 24.134 43.1858 24.4992 42 24.5ZM42 6.75C42.7956 6.75 43.5587 7.14509 44.1213 7.84835C44.6839 8.55161 45 9.50544 45 10.5C45 11.4946 44.6839 12.4484 44.1213 13.1517C43.5587 13.8549 42.7956 14.25 42 14.25C41.2044 14.25 40.4413 13.8549 39.8787 13.1517C39.3161 12.4484 39 11.4946 39 10.5C39 9.50544 39.3161 8.55161 39.8787 7.84835C40.4413 7.14509 41.2044 6.75 42 6.75ZM42 3C40.6868 3 39.3864 3.32332 38.1732 3.95151C36.9599 4.57969 35.8575 5.50043 34.9289 6.66117C33.0536 9.00537 32 12.1848 32 15.5C32 18.8152 33.0536 21.9946 34.9289 24.3388C35.8575 25.4996 36.9599 26.4203 38.1732 27.0485C39.3864 27.6767 40.6868 28 42 28C44.6522 28 47.1957 26.683 49.0711 24.3388C50.9464 21.9946 52 18.8152 52 15.5C52 8.5875 47.5 3 42 3Z" fill="#6700EE"/>
<path d="M30.38 16.54H26.9V20.1H23.66V16.54H20.18V13.48H23.66V9.9H26.9V13.48H30.38V16.54Z" fill="black"/>
<path d="M8.5 4C3.80375 4 0 6.38667 0 9.33333C0 12.28 3.80375 14.6667 8.5 14.6667C13.1963 14.6667 17 12.28 17 9.33333C17 6.38667 13.1963 4 8.5 4ZM0 12V16C0 18.9467 3.80375 21.3333 8.5 21.3333C13.1963 21.3333 17 18.9467 17 16V12C17 14.9467 13.1963 17.3333 8.5 17.3333C3.80375 17.3333 0 14.9467 0 12ZM0 18.6667V22.6667C0 25.6133 3.80375 28 8.5 28C13.1963 28 17 25.6133 17 22.6667V18.6667C17 21.6133 13.1963 24 8.5 24C3.80375 24 0 21.6133 0 18.6667Z" fill="#6D55FF"/>
</svg>
