<svg width="50" height="28" viewBox="0 0 36 33" fill="none"
    xmlns="http://www.w3.org/2000/svg">
    <path d="M3.48557 30.2485L10.7254 18.6191L20.2834 26.1696C20.5724 26.4022 20.9156 26.5729 21.2875 26.6689C21.6594 26.7649 22.0505 26.7837 22.4315 26.724C22.8126 26.6643 23.1739 26.5276 23.4885 26.324C23.8031 26.1205 24.0629 25.8553 24.2486 25.5483L33.21 13.4454L31.0744 12.1494L22.0744 24.3046L21.9844 24.4245L12.4251 16.874C12.1363 16.6427 11.7937 16.473 11.4227 16.3776C11.0517 16.2821 10.6618 16.2633 10.2816 16.3225C9.9015 16.3816 9.54092 16.5173 9.22652 16.7195C8.91212 16.9217 8.65192 17.1852 8.46514 17.4906L2.57143 26.9712V0H0V30.2485C0.000680756 30.8654 0.271817 31.4569 0.753906 31.8931C1.23599 32.3293 1.88965 32.5747 2.57143 32.5753H36V30.2485H3.48557Z" fill="#6D55FF"/>
    <path d="M7.71429 9.30722H18V11.634H7.71429V9.30722ZM7.71429 4.65361H23.1429V6.98042H7.71429V4.65361ZM7.71429 0H23.1429V2.32681H7.71429V0Z" fill="#6D55FF"/>
</svg>
