<svg width="140" height="54" viewBox="0 0 165 54" fill="none" xmlns="http://www.w3.org/2000/svg">
<rect width="161.13" height="38.5323" rx="19.2662" transform="matrix(0.999752 -0.0222557 0.0343891 0.999408 1.7224 6.396)" fill="none" fill-opacity="0.17"/>
<path d="M31.8183 24.2746L31.8532 22.2749L39.9134 18.8923L39.8733 21.1931L34.3585 23.296L34.4344 23.178L34.4294 23.462L34.3577 23.3415L39.7957 25.6356L39.7556 27.9364L31.8183 24.2746Z" fill="#6D55FF"/>
<path d="M49.4508 30.4071C48.5191 30.3908 47.6656 30.1316 46.8901 29.6293C46.1204 29.1272 45.5084 28.3749 45.0542 27.3725C44.6058 26.3702 44.3947 25.1135 44.4211 23.6024C44.4487 22.0231 44.7153 20.7434 45.2212 19.7635C45.7327 18.7836 46.3816 18.0704 47.1679 17.6238C47.9599 17.1774 48.7876 16.9617 49.6512 16.9767C50.2988 16.988 50.8649 17.1116 51.3495 17.3473C51.8342 17.5774 52.238 17.8828 52.561 18.2635C52.884 18.6385 53.1269 19.0491 53.2896 19.4952L53.3577 19.4964L53.4738 12.8496L58.1776 12.9317L57.873 30.3836L53.2032 30.3021L53.2407 28.1547L53.1385 28.1529C52.9489 28.5929 52.6807 28.986 52.3337 29.3323C51.9924 29.6729 51.5786 29.9413 51.0921 30.1374C50.6115 30.3279 50.0644 30.4178 49.4508 30.4071ZM51.2523 26.8244C51.684 26.8319 52.0555 26.7134 52.3666 26.4688C52.6835 26.2186 52.9284 25.8648 53.1011 25.4076C53.2797 24.9447 53.3745 24.3951 53.3856 23.7589C53.3969 23.1112 53.3214 22.5558 53.159 22.0927C53.0024 21.624 52.77 21.2648 52.4618 21.015C52.1594 20.7597 51.7923 20.6283 51.3605 20.6208C50.9288 20.6132 50.5573 20.7318 50.2462 20.9764C49.9409 21.2154 49.7017 21.5664 49.5289 22.0294C49.3618 22.4867 49.2726 23.0392 49.2613 23.6869C49.25 24.3345 49.3198 24.8926 49.4707 25.3612C49.6274 25.8243 49.8541 26.1834 50.1509 26.4386C50.4534 26.6882 50.8205 26.8168 51.2523 26.8244ZM60.1823 30.4239L60.4107 17.335L65.1146 17.4171L64.8861 30.5061L60.1823 30.4239ZM62.7865 16.0127C62.1502 16.0015 61.6085 15.7818 61.1613 15.3535C60.7142 14.9252 60.4958 14.4156 60.5061 13.8248C60.5164 13.234 60.7525 12.7323 61.2143 12.3199C61.6761 11.9074 62.2252 11.7067 62.8614 11.7179C63.5034 11.7291 64.0451 11.9488 64.4865 12.377C64.9337 12.8053 65.1521 13.3149 65.1418 13.9057C65.1315 14.4965 64.8954 14.9982 64.4336 15.4106C63.9774 15.8232 63.4284 16.0239 62.7865 16.0127ZM80.7024 17.6892L76.0769 30.7014L70.6232 30.6062L66.4546 17.4405L71.397 17.5268L73.3592 26.2215L73.4955 26.2238L75.76 17.603L80.7024 17.6892Z" fill="#6D55FF"/>
<path d="M93.4624 27.802C92.6977 27.9644 91.9053 28.0385 91.0851 28.0242C87.8044 27.9669 86.1918 26.3419 86.2476 23.149C86.2992 20.1905 87.9654 18.7398 91.2462 18.7971C92.0664 18.8114 92.8557 18.9131 93.6143 19.1021L93.582 20.9476C92.8235 20.7585 92.0927 20.6578 91.3897 20.6456C89.5443 20.6134 88.6065 21.4614 88.5763 23.1896C88.5421 25.1522 89.4477 26.1496 91.2931 26.1818C91.9961 26.1941 92.7299 26.119 93.4946 25.9566L93.4624 27.802ZM98.5336 15.5839L98.3142 28.1504L95.9855 28.1097L96.2048 15.5433L98.5336 15.5839ZM101.121 25.3249C101.153 23.4912 102.504 22.5977 105.176 22.6443C105.803 22.6552 106.428 22.7248 107.053 22.8529L107.065 22.1586C107.08 21.3326 106.492 20.9092 105.303 20.8884C104.295 20.8708 103.174 20.9978 101.939 21.2692L101.971 19.4238C103.206 19.1524 104.328 19.0254 105.335 19.043C108.077 19.0909 109.43 20.1283 109.395 22.1553L109.287 28.3419L107.934 28.3183L107.122 27.4778C106.31 28.0145 105.42 28.2744 104.454 28.2575C102.198 28.2182 101.087 27.2406 101.121 25.3249ZM107.026 24.4347C106.442 24.3073 105.816 24.2377 105.148 24.2261C104.029 24.2065 103.463 24.5776 103.45 25.3392C103.435 26.1594 103.897 26.5776 104.834 26.594C105.608 26.6075 106.33 26.3798 107 25.911L107.026 24.4347ZM112.49 27.9583L112.524 26.025C113.542 26.453 114.722 26.6787 116.063 26.7021C117.065 26.7196 117.572 26.4061 117.583 25.7617C117.594 25.1465 117.262 24.8331 116.589 24.8213L114.919 24.7922C113.044 24.7595 112.123 23.8204 112.155 21.975C112.189 20.0417 113.574 19.0989 116.31 19.1467C117.47 19.1669 118.559 19.3617 119.578 19.7311L119.544 21.6644C118.526 21.2364 117.417 21.012 116.216 20.991C114.956 20.969 114.321 21.2802 114.31 21.9247C114.299 22.5398 114.66 22.8538 115.392 22.8666L116.886 22.8926C118.936 22.9284 119.945 23.869 119.913 25.7145C119.88 27.6478 118.556 28.5916 115.943 28.546C114.66 28.5236 113.509 28.3277 112.49 27.9583ZM122.496 28.133L122.53 26.1997C123.548 26.6276 124.728 26.8533 126.069 26.8768C127.071 26.8943 127.578 26.5808 127.589 25.9363C127.6 25.3212 127.268 25.0078 126.595 24.996L124.925 24.9669C123.05 24.9341 122.129 23.9951 122.161 22.1496C122.195 20.2163 123.58 19.2736 126.316 19.3213C127.476 19.3416 128.565 19.5364 129.584 19.9058L129.551 21.8391C128.532 21.4111 127.423 21.1866 126.222 21.1657C124.962 21.1437 124.327 21.4549 124.316 22.0993C124.305 22.7145 124.666 23.0284 125.398 23.0412L126.892 23.0673C128.942 23.1031 129.952 24.0437 129.919 25.8891C129.886 27.8224 128.562 28.7663 125.949 28.7207C124.666 28.6983 123.515 28.5024 122.496 28.133ZM138.935 24.9037L138.903 26.7492L132.312 26.6341L132.344 24.7887L138.935 24.9037ZM138.99 21.7401L138.958 23.5856L132.367 23.4705L132.399 21.6251L138.99 21.7401ZM147.237 16.4341L146.907 20.2521L145.281 20.2237L145.084 16.3965L147.237 16.4341ZM143.985 16.3773L143.655 20.1954L142.029 20.167L141.832 16.3397L143.985 16.3773Z" fill="black" fill-opacity="0.54"/>
</svg>
