<svg width="401" height="400" viewBox="0 0 401 400" fill="none" xmlns="http://www.w3.org/2000/svg">
<rect width="94.7287" height="94" transform="translate(200 103)" fill="white"/>
<circle cx="251" cy="150" r="41.5" stroke="url(#paint0_linear_12_107)"/>
<path d="M283.167 150C283.167 173.044 268.655 191.5 251 191.5C233.344 191.5 218.833 173.044 218.833 150C218.833 126.956 233.344 108.5 251 108.5C268.655 108.5 283.167 126.956 283.167 150Z" stroke="url(#paint1_linear_12_107)"/>
<path d="M273.833 150C273.833 161.529 271.236 171.943 267.062 179.456C262.879 186.986 257.179 191.5 251 191.5C244.821 191.5 239.121 186.986 234.938 179.456C230.764 171.943 228.167 161.529 228.167 150C228.167 138.471 230.764 128.057 234.938 120.544C239.121 113.014 244.821 108.5 251 108.5C257.179 108.5 262.879 113.014 267.062 120.544C271.236 128.057 273.833 138.471 273.833 150Z" stroke="url(#paint2_linear_12_107)"/>
<path d="M264.5 150C264.5 161.559 262.938 172.003 260.425 179.54C259.168 183.312 257.682 186.327 256.057 188.39C254.427 190.458 252.714 191.5 251 191.5C249.286 191.5 247.573 190.458 245.943 188.39C244.318 186.327 242.832 183.312 241.575 179.54C239.062 172.003 237.5 161.559 237.5 150C237.5 138.441 239.062 127.997 241.575 120.46C242.832 116.688 244.318 113.673 245.943 111.61C247.573 109.542 249.286 108.5 251 108.5C252.714 108.5 254.427 109.542 256.057 111.61C257.682 113.673 259.168 116.688 260.425 120.46C262.938 127.997 264.5 138.441 264.5 150Z" stroke="url(#paint3_linear_12_107)"/>
<path d="M251 117L252.754 122.383L259.485 119.436L255.235 124.102L263 125.318L255.235 126.534L259.485 131.2L252.754 128.254L251 133.636L249.246 128.254L242.515 131.2L246.765 126.534L239 125.318L246.765 124.102L242.515 119.436L249.246 122.383L251 117Z" fill="url(#paint4_radial_12_107)"/>
<path d="M251 139.182L252.754 144.565L259.485 141.618L255.235 146.284L263 147.5L255.235 148.716L259.485 153.382L252.754 150.435L251 155.818L249.246 150.435L242.515 153.382L246.765 148.716L239 147.5L246.765 146.284L242.515 141.618L249.246 144.565L251 139.182Z" fill="url(#paint5_radial_12_107)"/>
<path d="M251 161.364L252.754 166.746L259.485 163.8L255.235 168.466L263 169.682L255.235 170.898L259.485 175.564L252.754 172.617L251 178L249.246 172.617L242.515 175.564L246.765 170.898L239 169.682L246.765 168.466L242.515 163.8L249.246 166.746L251 161.364Z" fill="url(#paint6_radial_12_107)"/>
<rect width="94.7287" height="94" transform="translate(100 206)" fill="#6E00FF"/>
<circle cx="151" cy="253" r="41.5" stroke="url(#paint7_linear_12_107)"/>
<path d="M183.167 253C183.167 276.044 168.655 294.5 151 294.5C133.344 294.5 118.833 276.044 118.833 253C118.833 229.956 133.344 211.5 151 211.5C168.655 211.5 183.167 229.956 183.167 253Z" stroke="url(#paint8_linear_12_107)"/>
<path d="M173.833 253C173.833 264.529 171.236 274.943 167.062 282.456C162.879 289.986 157.179 294.5 151 294.5C144.821 294.5 139.121 289.986 134.938 282.456C130.764 274.943 128.167 264.529 128.167 253C128.167 241.471 130.764 231.057 134.938 223.544C139.121 216.014 144.821 211.5 151 211.5C157.179 211.5 162.879 216.014 167.062 223.544C171.236 231.057 173.833 241.471 173.833 253Z" stroke="url(#paint9_linear_12_107)"/>
<path d="M164.5 253C164.5 264.559 162.938 275.003 160.425 282.54C159.168 286.312 157.682 289.327 156.057 291.39C154.427 293.458 152.714 294.5 151 294.5C149.286 294.5 147.573 293.458 145.943 291.39C144.318 289.327 142.832 286.312 141.575 282.54C139.062 275.003 137.5 264.559 137.5 253C137.5 241.441 139.062 230.997 141.575 223.46C142.832 219.688 144.318 216.673 145.943 214.61C147.573 212.542 149.286 211.5 151 211.5C152.714 211.5 154.427 212.542 156.057 214.61C157.682 216.673 159.168 219.688 160.425 223.46C162.938 230.997 164.5 241.441 164.5 253Z" stroke="url(#paint10_linear_12_107)"/>
<path d="M151 220L152.754 225.383L159.485 222.436L155.235 227.102L163 228.318L155.235 229.534L159.485 234.2L152.754 231.254L151 236.636L149.246 231.254L142.515 234.2L146.765 229.534L139 228.318L146.765 227.102L142.515 222.436L149.246 225.383L151 220Z" fill="url(#paint11_radial_12_107)"/>
<path d="M151 242.182L152.754 247.565L159.485 244.618L155.235 249.284L163 250.5L155.235 251.716L159.485 256.382L152.754 253.435L151 258.818L149.246 253.435L142.515 256.382L146.765 251.716L139 250.5L146.765 249.284L142.515 244.618L149.246 247.565L151 242.182Z" fill="url(#paint12_radial_12_107)"/>
<path d="M151 264.364L152.754 269.746L159.485 266.8L155.235 271.466L163 272.682L155.235 273.898L159.485 278.564L152.754 275.617L151 281L149.246 275.617L142.515 278.564L146.765 273.898L139 272.682L146.765 271.466L142.515 266.8L149.246 269.746L151 264.364Z" fill="url(#paint13_radial_12_107)"/>
<rect x="200.5" width="100" height="100" rx="10" fill="#6E00FF"/>
<rect x="100" y="100" width="100" height="100" rx="10" fill="white"/>
<rect x="93" y="300" width="100" height="100" rx="10" fill="white"/>
<rect x="301" y="100" width="100" height="100" rx="10" fill="#6E00FF" fill-opacity="0.25"/>
<rect x="201" y="200" width="100" height="100" rx="10" fill="#6E00FF"/>
<rect y="200" width="100" height="100" rx="10" fill="#FF64AE" fill-opacity="0.25"/>
<defs>
<linearGradient id="paint0_linear_12_107" x1="251" y1="108" x2="251" y2="192" gradientUnits="userSpaceOnUse">
<stop stop-color="#FF64CB"/>
<stop offset="1" stop-color="#FF64CB"/>
</linearGradient>
<linearGradient id="paint1_linear_12_107" x1="251" y1="108" x2="251" y2="192" gradientUnits="userSpaceOnUse">
<stop stop-color="#FF64CB"/>
<stop offset="1" stop-color="#FF64CB"/>
</linearGradient>
<linearGradient id="paint2_linear_12_107" x1="251" y1="108" x2="251" y2="192" gradientUnits="userSpaceOnUse">
<stop stop-color="#FF64CB"/>
<stop offset="1" stop-color="#FF64CB"/>
</linearGradient>
<linearGradient id="paint3_linear_12_107" x1="251" y1="108" x2="251" y2="192" gradientUnits="userSpaceOnUse">
<stop stop-color="#FF64CB"/>
<stop offset="1" stop-color="#FF64CB"/>
</linearGradient>
<radialGradient id="paint4_radial_12_107" cx="0" cy="0" r="1" gradientUnits="userSpaceOnUse" gradientTransform="translate(251 125.318) rotate(90) scale(8.31818 12)">
<stop stop-color="#FF64AE" stop-opacity="0.96"/>
<stop offset="1" stop-color="#FF3D9A"/>
</radialGradient>
<radialGradient id="paint5_radial_12_107" cx="0" cy="0" r="1" gradientUnits="userSpaceOnUse" gradientTransform="translate(251 147.5) rotate(90) scale(8.31818 12)">
<stop stop-color="#FF64AE" stop-opacity="0.96"/>
<stop offset="1" stop-color="#FF3D9A"/>
</radialGradient>
<radialGradient id="paint6_radial_12_107" cx="0" cy="0" r="1" gradientUnits="userSpaceOnUse" gradientTransform="translate(251 169.682) rotate(90) scale(8.31818 12)">
<stop stop-color="#FF64AE" stop-opacity="0.96"/>
<stop offset="1" stop-color="#FF3D9A"/>
</radialGradient>
<linearGradient id="paint7_linear_12_107" x1="151" y1="211" x2="151" y2="295" gradientUnits="userSpaceOnUse">
<stop stop-color="#4BF2FC"/>
<stop offset="1" stop-color="#4BF2FC"/>
</linearGradient>
<linearGradient id="paint8_linear_12_107" x1="151" y1="211" x2="151" y2="295" gradientUnits="userSpaceOnUse">
<stop stop-color="#4BF2FC"/>
<stop offset="1" stop-color="#4BF2FC"/>
</linearGradient>
<linearGradient id="paint9_linear_12_107" x1="151" y1="211" x2="151" y2="295" gradientUnits="userSpaceOnUse">
<stop stop-color="#4BF2FC"/>
<stop offset="1" stop-color="#4BF2FC"/>
</linearGradient>
<linearGradient id="paint10_linear_12_107" x1="151" y1="211" x2="151" y2="295" gradientUnits="userSpaceOnUse">
<stop stop-color="#4BF2FC"/>
<stop offset="1" stop-color="#4BF2FC"/>
</linearGradient>
<radialGradient id="paint11_radial_12_107" cx="0" cy="0" r="1" gradientUnits="userSpaceOnUse" gradientTransform="translate(151 228.318) rotate(90) scale(8.31818 12)">
<stop stop-color="#4BF2FC"/>
<stop offset="1" stop-color="#4BF2FC"/>
</radialGradient>
<radialGradient id="paint12_radial_12_107" cx="0" cy="0" r="1" gradientUnits="userSpaceOnUse" gradientTransform="translate(151 250.5) rotate(90) scale(8.31818 12)">
<stop stop-color="#4BF2FC"/>
<stop offset="1" stop-color="#4BF2FC"/>
</radialGradient>
<radialGradient id="paint13_radial_12_107" cx="0" cy="0" r="1" gradientUnits="userSpaceOnUse" gradientTransform="translate(151 272.682) rotate(90) scale(8.31818 12)">
<stop stop-color="#4BF2FC"/>
<stop offset="1" stop-color="#4BF2FC"/>
</radialGradient>
</defs>
</svg>
