<svg width="29" height="26" viewBox="0 0 29 26" fill="none" xmlns="http://www.w3.org/2000/svg">
<path d="M24.7094 22.1536H20.4125V16.1205C20.4125 14.6818 20.3838 12.8298 18.1777 12.8298C15.9397 12.8298 15.5972 14.3974 15.5972 16.0158V22.1532H11.3005V9.74671H15.4254V11.4422H15.4832C15.896 10.8094 16.4925 10.2888 17.2092 9.93583C17.9259 9.58291 18.736 9.41088 19.5531 9.43806C23.9082 9.43806 24.7112 12.0064 24.7112 15.3476L24.7094 22.1536ZM6.45205 8.05092C5.07489 8.05112 3.95827 7.05033 3.95805 5.81563C3.95782 4.58094 5.07398 3.57984 6.45114 3.57963C7.8283 3.57933 8.94491 4.58013 8.94514 5.81482C8.94526 6.40775 8.68267 6.97643 8.21512 7.39578C7.74758 7.81513 7.11339 8.05079 6.45205 8.05092ZM8.60054 22.1537H4.29914V9.74671H8.60042L8.60054 22.1537ZM26.8515 0.0018923H2.14C0.972066 -0.00988894 0.0142734 0.828915 0 1.87602V24.1236C0.0138203 25.1712 0.9715 26.0108 2.13988 25.9999H26.8515C28.0224 26.0129 28.9838 25.1732 29 24.1236V1.8743C28.9833 0.825158 28.0218 -0.0135452 26.8515 0.000165739" fill="#0A66C2"/>
</svg>
