<svg width="145" height="27" viewBox="0 0 145 27" fill="none" xmlns="http://www.w3.org/2000/svg">
<path d="M82.7094 23.1536H78.4125V17.1205C78.4125 15.6818 78.3838 13.8298 76.1777 13.8298C73.9397 13.8298 73.5972 15.3974 73.5972 17.0158V23.1532H69.3005V10.7467H73.4254V12.4422H73.4832C73.896 11.8094 74.4925 11.2888 75.2092 10.9358C75.9259 10.5829 76.736 10.4109 77.5531 10.4381C81.9082 10.4381 82.7112 13.0064 82.7112 16.3476L82.7094 23.1536ZM64.452 9.05092C63.0749 9.05112 61.9583 8.05033 61.958 6.81563C61.9578 5.58094 63.074 4.57984 64.4511 4.57963C65.8283 4.57933 66.9449 5.58013 66.9451 6.81482C66.9453 7.40775 66.6827 7.97643 66.2151 8.39578C65.7476 8.81513 65.1134 9.05079 64.452 9.05092ZM66.6005 23.1537H62.2991V10.7467H66.6004L66.6005 23.1537ZM84.8515 1.00189H60.14C58.9721 0.990111 58.0143 1.82892 58 2.87602V25.1236C58.0138 26.1712 58.9715 27.0108 60.1399 26.9999H84.8515C86.0224 27.0129 86.9838 26.1732 87 25.1236V2.8743C86.9833 1.82516 86.0218 0.986455 84.8515 1.00017" fill="#0A66C2"/>
<path d="M145 6.70588C143.969 7.17941 142.859 7.49059 141.707 7.63941C142.885 6.92235 143.795 5.78588 144.224 4.41941C143.113 5.09588 141.881 5.56941 140.583 5.84C139.526 4.67647 138.04 4 136.354 4C133.208 4 130.639 6.59765 130.639 9.80412C130.639 10.2641 130.692 10.7106 130.786 11.13C126.021 10.8865 121.778 8.57294 118.954 5.06882C118.459 5.92118 118.178 6.92235 118.178 7.97765C118.178 9.99353 119.182 11.7794 120.734 12.7941C119.784 12.7941 118.901 12.5235 118.124 12.1176V12.1582C118.124 14.9724 120.105 17.3265 122.728 17.8541C121.886 18.0871 121.002 18.1195 120.145 17.9488C120.509 19.1022 121.221 20.1114 122.181 20.8346C123.141 21.5577 124.302 21.9585 125.499 21.9806C123.469 23.6047 120.954 24.4826 118.365 24.47C117.91 24.47 117.455 24.4429 117 24.3888C119.543 26.0394 122.568 27 125.807 27C136.354 27 142.149 18.1518 142.149 10.4806C142.149 10.2235 142.149 9.98 142.136 9.72294C143.26 8.91118 144.224 7.88294 145 6.70588Z" fill="#0A66C2"/>
<path d="M14 0C12.1615 0 10.341 0.357857 8.64243 1.05314C6.94387 1.74842 5.40053 2.76751 4.1005 4.05223C1.475 6.64682 0 10.1659 0 13.8352C0 19.9503 4.018 25.1385 9.576 26.9786C10.276 27.0893 10.5 26.6604 10.5 26.2868V23.9487C6.622 24.7788 5.796 22.0948 5.796 22.0948C5.152 20.4899 4.242 20.061 4.242 20.061C2.968 19.2032 4.34 19.2309 4.34 19.2309C5.74 19.3277 6.482 20.6559 6.482 20.6559C7.7 22.7588 9.758 22.1363 10.556 21.8042C10.682 20.9049 11.046 20.2962 11.438 19.9503C8.33 19.6044 5.068 18.4146 5.068 13.1434C5.068 11.6077 5.6 10.3764 6.51 9.39408C6.37 9.0482 5.88 7.60934 6.65 5.74159C6.65 5.74159 7.826 5.36804 10.5 7.15278C11.606 6.84841 12.81 6.69622 14 6.69622C15.19 6.69622 16.394 6.84841 17.5 7.15278C20.174 5.36804 21.35 5.74159 21.35 5.74159C22.12 7.60934 21.63 9.0482 21.49 9.39408C22.4 10.3764 22.932 11.6077 22.932 13.1434C22.932 18.4284 19.656 19.5906 16.534 19.9365C17.038 20.3654 17.5 21.2093 17.5 22.496V26.2868C17.5 26.6604 17.724 27.1031 18.438 26.9786C23.996 25.1247 28 19.9503 28 13.8352C28 12.0183 27.6379 10.2192 26.9343 8.54068C26.2307 6.86212 25.1995 5.33694 23.8995 4.05223C22.5995 2.76751 21.0561 1.74842 19.3576 1.05314C17.659 0.357857 15.8385 0 14 0Z" fill="black"/>
</svg>
